<svg xmlns="http://www.w3.org/2000/svg"
     width="371.4040404040404"
     height="103.45454545454544"
     viewBox="0 0 371.4040404040404 103.45454545454544"
     preserveAspectRatio="xMidYMid meet"
>
    <defs></defs>
    <g
            transform="matrix(2.227272727272727,0,0,2.227272727272727,-15.59090909090909,-19.045454545454543)"
            fill="#2ae8cf"
    >
        <g xmlns="http://www.w3.org/2000/svg">
            <g>
                <path d="M56,9H8c-0.552,0-1,0.448-1,1v36c0,0.553,0.448,1,1,1h23v6h-9c-0.552,0-1,0.447-1,1s0.448,1,1,1h20c0.553,0,1-0.447,1-1    s-0.447-1-1-1h-9v-6h23c0.553,0,1-0.447,1-1V10C57,9.448,56.553,9,56,9z M55,45H9V11h46V45z"></path>
                <path d="M23.293,32.707C23.488,32.902,23.744,33,24,33s0.512-0.098,0.707-0.293c0.391-0.391,0.391-1.023,0-1.414L21.414,28    l3.293-3.293c0.391-0.391,0.391-1.023,0-1.414s-1.023-0.391-1.414,0l-4,4c-0.391,0.391-0.391,1.023,0,1.414L23.293,32.707z"></path>
                <path d="M39.293,32.707C39.488,32.902,39.744,33,40,33s0.512-0.098,0.707-0.293l4-4c0.391-0.391,0.391-1.023,0-1.414l-4-4    c-0.391-0.391-1.023-0.391-1.414,0s-0.391,1.023,0,1.414L42.586,28l-3.293,3.293C38.902,31.684,38.902,32.316,39.293,32.707z"></path>
                <path d="M29.757,36.97C29.839,36.99,29.92,37,30.001,37c0.448,0,0.855-0.303,0.969-0.758l4-16    c0.135-0.536-0.191-1.079-0.728-1.213c-0.535-0.138-1.079,0.192-1.212,0.728l-4,16C28.896,36.293,29.222,36.836,29.757,36.97z"></path>
            </g>
        </g>
    </g>
    <g
            transform="matrix(3.2040326648850534,0,0,3.2040326648850534,127.00170999001645,-15.763840955682756)"
            fill="#f2f4f7"
    >
        <path d="M4.72 20 l-3.16 0 l0 -14.62 l3.16 0 l0 6.1 l5.7 -6.1 l3.92 0 l-6.02 6.2 l6.28 8.42 l-3.88 0 l-4.58 -6.22 l-1.42 1.48 l0 4.74 z M18.48 19.26 q-1.8 -1.02 -2.86 -2.77 t-1.06 -3.81 q0 -2.04 1.06 -3.79 t2.86 -2.77 t3.94 -1.02 t3.96 1.02 t2.88 2.77 t1.06 3.79 q0 2.06 -1.06 3.81 t-2.88 2.77 t-3.96 1.02 t-3.94 -1.02 z M20.060000000000002 8.63 q-1.08 0.65 -1.72 1.73 t-0.64 2.32 t0.64 2.33 t1.72 1.75 t2.36 0.66 t2.37 -0.66 t1.72 -1.75 t0.63 -2.33 t-0.63 -2.32 t-1.72 -1.73 t-2.37 -0.65 t-2.36 0.65 z M36.040000000000006 20 l-3.14 0 l0 -15.08 l10.08 8.92 l0 -8.44 l3.16 0 l0 15.06 l-10.1 -8.78 l0 8.32 z M52.60000000000001 11.38 l7 0 l0 2.76 l-7 0 l0 3.12 l7.92 0 l0 2.74 l-11.08 0 l0 -14.62 l11.08 0 l0 2.74 l-7.92 0 l0 3.26 z M63.46000000000001 20 l0 -14.62 l6.5 0 q1.56 0 2.76 0.64 t1.86 1.8 t0.66 2.64 q0 1.58 -0.8 2.82 t-2.18 1.82 q1.42 1.8 3.78 4.9 l-3.78 0 q-1.28 -1.6 -3.5 -4.56 l-2.16 0 l0 4.56 l-3.14 0 z M69.96000000000001 12.7 q0.82 0 1.48 -0.59 t0.66 -1.65 q0 -0.86 -0.46 -1.6 t-1.68 -0.74 l-3.36 0 l0 4.58 l3.36 0 z"></path>
    </g>
    <g
            transform="matrix(1.0650918789044783,0,0,1.0650918789044783,141.04141619166012,54.75974787452991)"
            fill="#f2f4f7"
    >
        <path d="M4.86 16.87 q1.42 0.57 2.6 0.57 q1.24 0 1.97 -0.48 t0.73 -1.14 q0 -0.54 -0.43 -0.88 t-1.09 -0.51 t-1.74 -0.37 q-1.44 -0.24 -2.64 -0.62 t-2.18 -1.32 t-0.98 -2.54 q0 -2.36 1.73 -3.39 t4.07 -1.03 q1.8 0 3.13 0.49 t2.65 1.47 l-1.76 2.4 q-0.98 -0.7 -2.04 -1.1 t-2.1 -0.4 q-0.92 0 -1.72 0.33 t-0.8 1.11 q0 0.48 0.41 0.77 t0.9 0.42 t1.59 0.37 l0.72 0.14 q1.66 0.32 2.75 0.71 t1.89 1.31 t0.8 2.56 q0 2.22 -1.57 3.38 t-4.25 1.16 q-3.92 0 -6.6 -2.28 l1.68 -2.42 q0.86 0.72 2.28 1.29 z M31.264000000000003 19.26 q-1.8 -1.02 -2.86 -2.77 t-1.06 -3.81 q0 -2.04 1.06 -3.79 t2.86 -2.77 t3.94 -1.02 t3.96 1.02 t2.88 2.77 t1.06 3.79 q0 2.06 -1.06 3.81 t-2.88 2.77 t-3.96 1.02 t-3.94 -1.02 z M32.844 8.63 q-1.08 0.65 -1.72 1.73 t-0.64 2.32 t0.64 2.33 t1.72 1.75 t2.36 0.66 t2.37 -0.66 t1.72 -1.75 t0.63 -2.33 t-0.63 -2.32 t-1.72 -1.73 t-2.37 -0.65 t-2.36 0.65 z M61.228 11.34 l6.98 0 l0 2.74 l-6.98 0 l0 5.92 l-3.18 0 l0 -14.62 l11.08 0 l0 2.74 l-7.9 0 l0 3.22 z M90.572 8.12 l0 11.88 l-3.18 0 l0 -11.88 l-4.26 0 l0 -2.74 l11.68 0 l0 2.74 l-4.24 0 z M121.956 20.54 l-4.18 -8.68 l-4.22 8.68 l-5.84 -15.14 l3.4 0 l2.82 7.58 l3.84 -7.96 l3.84 7.96 l2.88 -7.58 l3.36 0 z M146.42000000000002 4.92 l8.02 15.08 l-3.46 0 l-1.16 -2.24 l-6.82 0 l-1.12 2.24 l-3.48 0 z M148.3 15.059999999999999 l-1.88 -3.82 l-1.86 3.82 l3.74 0 z M167.68400000000003 20 l0 -14.62 l6.5 0 q1.56 0 2.76 0.64 t1.86 1.8 t0.66 2.64 q0 1.58 -0.8 2.82 t-2.18 1.82 q1.42 1.8 3.78 4.9 l-3.78 0 q-1.28 -1.6 -3.5 -4.56 l-2.16 0 l0 4.56 l-3.14 0 z M174.18400000000003 12.7 q0.82 0 1.48 -0.59 t0.66 -1.65 q0 -0.86 -0.46 -1.6 t-1.68 -0.74 l-3.36 0 l0 4.58 l3.36 0 z M197.788 11.38 l7 0 l0 2.76 l-7 0 l0 3.12 l7.92 0 l0 2.74 l-11.08 0 l0 -14.62 l11.08 0 l0 2.74 l-7.92 0 l0 3.26 z"></path>
    </g>
    <g
            transform="matrix(1.0650918789044783,0,0,1.0650918789044783,130.04141619166012,81.75974787452991)"
            fill="#f2f4f7"
    >
        <path d="M4.86 16.87 q1.42 0.57 2.6 0.57 q1.24 0 1.97 -0.48 t0.73 -1.14 q0 -0.54 -0.43 -0.88 t-1.09 -0.51 t-1.74 -0.37 q-1.44 -0.24 -2.64 -0.62 t-2.18 -1.32 t-0.98 -2.54 q0 -2.36 1.73 -3.39 t4.07 -1.03 q1.8 0 3.13 0.49 t2.65 1.47 l-1.76 2.4 q-0.98 -0.7 -2.04 -1.1 t-2.1 -0.4 q-0.92 0 -1.72 0.33 t-0.8 1.11 q0 0.48 0.41 0.77 t0.9 0.42 t1.59 0.37 l0.72 0.14 q1.66 0.32 2.75 0.71 t1.89 1.31 t0.8 2.56 q0 2.22 -1.57 3.38 t-4.25 1.16 q-3.92 0 -6.6 -2.28 l1.68 -2.42 q0.86 0.72 2.28 1.29 z M31.264000000000003 19.26 q-1.8 -1.02 -2.86 -2.77 t-1.06 -3.81 q0 -2.04 1.06 -3.79 t2.86 -2.77 t3.94 -1.02 t3.96 1.02 t2.88 2.77 t1.06 3.79 q0 2.06 -1.06 3.81 t-2.88 2.77 t-3.96 1.02 t-3.94 -1.02 z M32.844 8.63 q-1.08 0.65 -1.72 1.73 t-0.64 2.32 t0.64 2.33 t1.72 1.75 t2.36 0.66 t2.37 -0.66 t1.72 -1.75 t0.63 -2.33 t-0.63 -2.32 t-1.72 -1.73 t-2.37 -0.65 t-2.36 0.65 z M68.888 20 l-10.84 0 l0 -14.62 l3.18 0 l0 11.88 l7.66 0 l0 2.74 z M86.312 19.5 q-1.48 -0.76 -2.29 -2.16 t-0.81 -3.26 l0 -8.68 l3.16 0 l0 8.68 q0 1.28 0.55 2.05 t1.32 1.09 t1.53 0.32 q0.74 0 1.51 -0.32 t1.31 -1.09 t0.54 -2.05 l0 -8.68 l3.16 0 l0 8.68 q0 1.86 -0.8 3.26 t-2.28 2.16 t-3.44 0.76 q-1.98 0 -3.46 -0.76 z M117.89600000000002 8.12 l0 11.88 l-3.18 0 l0 -11.88 l-4.26 0 l0 -2.74 l11.68 0 l0 2.74 l-4.24 0 z M136.82 20 l0 -14.62 l3.16 0 l0 14.62 l-3.16 0 z M159.104 19.26 q-1.8 -1.02 -2.86 -2.77 t-1.06 -3.81 q0 -2.04 1.06 -3.79 t2.86 -2.77 t3.94 -1.02 t3.96 1.02 t2.88 2.77 t1.06 3.79 q0 2.06 -1.06 3.81 t-2.88 2.77 t-3.96 1.02 t-3.94 -1.02 z M160.684 8.63 q-1.08 0.65 -1.72 1.73 t-0.64 2.32 t0.64 2.33 t1.72 1.75 t2.36 0.66 t2.37 -0.66 t1.72 -1.75 t0.63 -2.33 t-0.63 -2.32 t-1.72 -1.73 t-2.37 -0.65 t-2.36 0.65 z M189.048 20 l-3.14 0 l0 -15.08 l10.08 8.92 l0 -8.44 l3.16 0 l0 15.06 l-10.1 -8.78 l0 8.32 z M218.15200000000002 16.87 q1.42 0.57 2.6 0.57 q1.24 0 1.97 -0.48 t0.73 -1.14 q0 -0.54 -0.43 -0.88 t-1.09 -0.51 t-1.74 -0.37 q-1.44 -0.24 -2.64 -0.62 t-2.18 -1.32 t-0.98 -2.54 q0 -2.36 1.73 -3.39 t4.07 -1.03 q1.8 0 3.13 0.49 t2.65 1.47 l-1.76 2.4 q-0.98 -0.7 -2.04 -1.1 t-2.1 -0.4 q-0.92 0 -1.72 0.33 t-0.8 1.11 q0 0.48 0.41 0.77 t0.9 0.42 t1.59 0.37 l0.72 0.14 q1.66 0.32 2.75 0.71 t1.89 1.31 t0.8 2.56 q0 2.22 -1.57 3.38 t-4.25 1.16 q-3.92 0 -6.6 -2.28 l1.68 -2.42 q0.86 0.72 2.28 1.29 z"></path>
    </g>
</svg>
