<svg width="187" height="200" xmlns="http://www.w3.org/2000/svg" version="1.1" xml:space="preserve">
 <g>
  <title>Layer 1</title>
  <g id="svg_1">
   <polygon class="st0" points="93.0999984741211,0 93.0999984741211,0 93.0999984741211,0 0,33.20000076293945 14.199996948242188,156.3000030517578 93.0999984741211,200 93.0999984741211,200 93.0999984741211,200 172,156.3000030517578 186.20001220703125,33.20000076293945 " fill="#DD0031" id="svg_2"/>
   <polygon class="st1" points="93.0999984741211,0 93.0999984741211,22.200000762939453 93.0999984741211,22.099998474121094 93.0999984741211,123.39999389648438 93.0999984741211,123.39999389648438 93.0999984741211,200 93.0999984741211,200 172,156.3000030517578 186.20001220703125,33.20000076293945 93.0999984741211,0 " fill="#C3002F" id="svg_3"/>
   <path class="st2" d="m93.1,22.1l-58.2,130.5l0,0l21.7,0l0,0l11.7,-29.2l49.4,0l11.7,29.2l0,0l21.7,0l0,0l-58,-130.5l0,0l0,0l0,0l0,0zm17,83.3l-34,0l17,-40.9l17,40.9z" fill="#FFFFFF" id="svg_4"/>
  </g>
 </g>

</svg>