<svg width="629.46" height="146.469" xmlns="http://www.w3.org/2000/svg">

 <g>
  <title>Layer 1</title>
  <path id="svg_1" d="m280.361,62.031l85.246,0l0,23.438l-85.246,0l0,-23.438z" fill="none"/>
  <g id="svg_2" fill="#8A4182">
   <path id="svg_3" d="m175,92.57c0.115,5.045 3.21,10.201 8.941,10.201c3.438,0 5.96,-1.604 7.681,-4.47c1.604,-2.866 1.604,-7.106 1.604,-10.315l0,-41.148l-8.94,0l0,-13.068l33.354,0l0,13.068l-8.824,0l0,43.096c0,7.337 -0.46,13.066 -5.616,19.027c-4.585,5.273 -12.035,8.253 -19.143,8.253c-14.672,0 -25.905,-9.743 -25.33,-24.644l16.273,0m94.676,-7.907c0,-10.088 -8.368,-18.227 -18.454,-18.227c-10.43,0 -18.454,8.598 -18.454,18.913c0,9.973 8.368,18.225 18.226,18.225c10.542,0 18.682,-8.481 18.682,-18.911zm-0.23,22.693c-4.471,6.763 -11.691,9.857 -19.715,9.857c-17.537,0 -31.405,-14.556 -31.405,-31.864c0,-17.767 14.213,-32.552 32.093,-32.552c7.909,0 14.786,3.667 19.027,10.315l0,-8.711l21.893,0l0,13.066l-7.68,0l0,35.075l7.68,0l0,13.066l-21.893,0l0,-8.252m40.346,-9.513c0.458,5.502 4.126,9.169 9.857,9.169c4.241,0 8.366,-2.979 8.366,-7.563c0,-6.075 -5.73,-7.106 -10.431,-8.368c-10.659,-2.75 -22.351,-6.075 -22.351,-19.484c0,-11.692 9.857,-18.454 20.747,-18.454c5.5,0 10.429,1.147 13.867,5.501l0,-4.24l10.316,0l0,16.621l-13.526,0c-0.229,-4.357 -3.552,-7.222 -7.907,-7.222c-3.782,0 -7.794,2.178 -7.794,6.418c0,5.731 5.616,6.991 10.087,8.022c11.002,2.521 22.809,5.962 22.809,19.717c0,12.379 -10.43,19.255 -21.892,19.255c-6.191,0 -11.808,-1.948 -15.818,-6.647l0,5.043l-10.659,0l0,-17.767l14.329,0m45.73,-30.376l-7.907,0l0,-13.066l20.632,0l0,9.169c3.897,-6.418 9.857,-10.66 17.65,-10.66c8.481,0 15.589,5.157 19.026,12.837c3.325,-7.794 11.578,-12.837 20.059,-12.837c6.649,0 13.184,2.75 17.652,7.794c4.814,5.617 4.814,11.691 4.814,18.683l0,23.154l7.908,0l0,13.066l-29.801,0l0,-13.066l7.91,0l0,-19.715c0,-4.012 0,-7.565 -1.834,-11.119c-2.293,-3.323 -6.076,-5.043 -9.973,-5.043c-3.781,0 -7.91,1.605 -10.316,4.584c-2.865,3.67 -2.865,7.107 -2.865,11.578l0,19.715l7.908,0l0,13.066l-29.802,0l0,-13.066l7.91,0l0,-18.798c0,-3.669 0,-8.253 -1.833,-11.462c-1.949,-3.667 -5.962,-5.617 -10.088,-5.617c-3.897,0 -7.222,1.376 -9.742,4.472c-3.097,3.782 -3.325,7.793 -3.325,12.493l0,18.912l7.908,0l0,13.066l-29.8,0l0,-13.066l7.907,0l0,-35.074m126.313,-18.911l-13.983,0l0,-14.787l13.983,0l0,14.787zm0,53.986l7.909,0l0,13.066l-29.917,0l0,-13.066l8.024,0l0,-35.075l-7.909,0l0,-13.066l21.894,0l-0.001,48.141m20.057,-35.075l-7.909,0l0,-13.066l21.894,0l0,8.711c3.668,-6.763 10.544,-10.087 18.107,-10.087c6.649,0 13.182,2.752 17.654,7.566c5.041,5.617 5.156,11.004 5.156,17.994l0,23.957l7.908,0l0,13.066l-29.799,0l0,-13.066l7.908,0l0,-19.83c0,-3.782 0,-7.679 -2.408,-11.004c-2.521,-3.323 -6.648,-4.927 -10.773,-4.927c-4.242,0 -8.598,1.719 -11.117,5.156c-2.637,3.438 -2.637,8.711 -2.637,12.839l0,17.766l7.906,0l0,13.066l-29.799,0l0,-13.066l7.908,0l0,-35.075m115.421,12.036c-2.405,-8.825 -10.2,-14.443 -19.255,-14.443c-8.255,0 -16.163,6.418 -17.882,14.443l37.137,0zm10.659,18.111c-4.813,11.689 -16.158,19.599 -28.881,19.599c-17.884,0 -32.21,-13.983 -32.21,-31.979c0,-18.11 13.64,-32.666 31.864,-32.666c8.483,0 16.965,3.782 22.924,9.858c6.077,6.418 8.598,14.212 8.598,22.923l-0.458,4.929l-49.517,0c1.834,8.483 9.629,14.671 18.34,14.671c6.074,0 11.346,-2.291 14.785,-7.334l14.555,0m-559.607,-36.454l11.344,0l2.817,-3.879l0,-30.39l-16.978,0l0,30.393l2.817,3.876m-7.312,13.556l3.505,-10.788l-2.819,-3.88l-28.902,-9.391l-5.247,16.148l28.907,9.393l4.556,-1.482m10.631,11.143l-9.177,-6.67l-4.561,1.484l-17.863,24.587l13.735,9.979l17.865,-24.588l0,-4.792m13.885,-6.67l-9.179,6.668l0.002,4.795l17.862,24.587l13.737,-9.979l-17.866,-24.589l-4.556,-1.482m-2.055,-15.264l3.507,10.79l4.561,1.479l28.903,-9.39l-5.246,-16.148l-28.905,9.393l-2.82,3.876"/>
   <path id="svg_4" d="m74.038,0.515c-40.381,0 -73.234,32.847 -73.234,73.223c0,40.389 32.854,73.247 73.234,73.247c40.377,0 73.226,-32.857 73.226,-73.247c-0.001,-40.376 -32.849,-73.223 -73.226,-73.223zm0,14.826c32.246,0 58.398,26.141 58.398,58.396c0,32.266 -26.152,58.418 -58.398,58.418c-32.26,0 -58.407,-26.152 -58.407,-58.418c0,-32.255 26.147,-58.396 58.407,-58.396"/>
   <path id="svg_5" d="m118.391,90.015l-21.972,-7.14l1.454,-4.477l21.97,7.141l-1.452,4.476m-28.021,-35.274l-3.808,-2.766l13.578,-18.691l3.808,2.765l-13.578,18.692m-32.437,-0.172l-13.576,-18.69l3.808,-2.767l13.576,18.692l-3.808,2.765m-28.347,35.165l-1.453,-4.476l21.97,-7.136l1.453,4.475l-21.97,7.137m41.95,30.692l4.705,0l0,-23.102l-4.705,0l0,23.102z"/>
  </g>
 </g>
</svg>