<svg width="255.324" height="255.95639" xmlns="http://www.w3.org/2000/svg" xmlns:xlink="http://www.w3.org/1999/xlink" preserveAspectRatio="xMidYMid">
 <defs>
  <linearGradient id="a">
   <stop stop-color="#0052cc" offset="0.18"/>
   <stop stop-color="#2684ff" offset="1"/>
  </linearGradient>
  <linearGradient y2="40.766%" y1=".161%" xlink:href="#a" x2="58.888%" x1="98.031%" id="b"/>
  <linearGradient y2="44.727%" y1=".455%" xlink:href="#a" x2="55.402%" x1="100.665%" id="c"/>
 </defs>
 <g>
  <title>Layer 1</title>
  <path id="svg_1" fill="#2684ff" d="m244.658,0l-122.951,0a55.502,55.502 0 0 0 55.502,55.502l22.649,0l0,21.868c0.02,30.625 24.841,55.447 55.466,55.467l0,-122.171c0,-5.889 -4.774,-10.666 -10.666,-10.666z"/>
  <path id="svg_2" fill="url(#b)" d="m183.822,61.262l-122.95,0c0.019,30.625 24.84,55.447 55.466,55.467l22.649,0l0,21.938c0.039,30.625 24.877,55.43 55.502,55.43l0,-122.167c0,-5.891 -4.776,-10.667 -10.667,-10.667l0,-0.001z"/>
  <path id="svg_3" fill="url(#c)" d="m122.951,122.489l-122.951,0c0,30.653 24.85,55.502 55.502,55.502l22.72,0l0,21.867c0.02,30.597 24.798,55.408 55.396,55.466l0,-122.168c0,-5.891 -4.776,-10.667 -10.667,-10.667z"/>
 </g>
</svg>