<svg width="460" height="197" xmlns="http://www.w3.org/2000/svg" xml:space="preserve" version="1.1">

 <g>
  <title>Layer 1</title>
  <g id="_x31_98-less">
   <g id="svg_1">
    <path id="svg_2" fill="#214674" d="m440.375,72.367c0,-14.737 2.3,-23.435 2.3,-39.25c0,-24.585 -9.058,-32.493 -29.113,-32.493l-14.737,0l0,17.396l4.529,0c10.208,0 12.436,3.379 12.436,15.887c0,11.717 -1.15,23.434 -1.15,37.021c0,17.396 5.679,24.154 16.967,26.814l0,1.149c-11.358,2.659 -16.967,9.417 -16.967,26.814c0,13.586 1.15,24.583 1.15,37.021c0,12.869 -2.66,16.247 -12.436,16.247l0,0.358l-4.529,0l0,18.115l14.737,0c19.983,0 29.113,-7.907 29.113,-32.492c0,-16.246 -2.3,-24.584 -2.3,-39.249c0,-7.907 4.888,-16.248 19.624,-16.966l0,-19.624c-14.736,-0.502 -19.624,-8.841 -19.624,-16.748l0,0zm-75.913,23.003c-11.357,-4.529 -21.924,-7.189 -21.924,-14.736c0,-5.679 4.528,-9.057 12.866,-9.057c8.339,0 15.889,3.378 24.155,9.416l15.095,-19.984c-9.418,-7.189 -22.284,-14.737 -39.681,-14.737c-25.664,0 -43.06,14.737 -43.06,35.511c0,18.475 16.247,27.964 29.834,33.212c11.717,4.527 23.074,8.339 23.074,15.887c0,5.679 -4.529,9.416 -14.736,9.416c-9.417,0 -18.907,-3.811 -29.114,-11.717l-15.094,21.925c11.355,9.418 28.682,15.889 43.058,15.889c30.191,0 46.438,-15.889 46.438,-36.662c0,-20.776 -16.174,-29.475 -30.911,-34.363l0,0zm-257.998,42.7c-2.66,0 -6.038,-2.3 -6.038,-9.416l0,-128.101l-53.627,0c-20.417,0 -29.474,7.907 -29.474,32.492c0,16.247 2.3,25.304 2.3,39.25c0,7.908 -4.888,16.246 -19.624,16.965l0,19.626c14.736,0.358 19.624,8.697 19.624,16.604c0,13.947 -2.3,22.284 -2.3,38.53c0,24.585 9.057,32.493 29.113,32.493l14.737,0l0,-17.396l-4.529,0c-9.416,0 -12.437,-3.811 -12.437,-16.248c0,-12.435 1.15,-23.072 1.15,-37.021c0,-17.395 -5.678,-24.152 -16.964,-26.813l0,-1.151c11.356,-2.658 16.964,-9.416 16.964,-26.813c0,-13.585 -1.15,-24.584 -1.15,-37.021c0,-12.436 2.661,-15.887 12.437,-15.887l10.137,0l0,108.405c0,23.074 7.907,38.172 30.982,38.172c7.188,0 12.867,-1.151 16.965,-2.659l-3.811,-24.586c-2.227,0.575 -3.305,0.575 -4.455,0.575l0,0zm166.559,-42.7c-11.718,-4.529 -22.284,-7.189 -22.284,-14.736c0,-5.679 4.528,-9.057 12.867,-9.057s15.887,3.378 24.153,9.416l15.096,-19.984c-9.416,-7.189 -22.284,-14.737 -39.68,-14.737c-25.664,0 -43.06,14.737 -43.06,35.511c0,18.475 16.247,27.964 29.834,33.212c11.716,4.527 23.073,8.339 23.073,15.887c0,5.679 -4.529,9.416 -14.736,9.416c-9.416,0 -18.906,-3.811 -29.113,-11.717l-14.737,21.925c11.357,9.418 28.682,15.889 43.061,15.889c30.192,0 46.438,-15.889 46.438,-36.662c0.072,-20.776 -16.175,-29.475 -30.912,-34.363l0,0zm-111.421,-49.457c-27.605,0 -53.987,23.076 -53.269,59.306c0,37.382 24.585,59.307 57.006,59.307c13.586,0 28.683,-4.891 40.399,-12.866l-11.358,-19.986c-8.339,4.888 -16.246,7.187 -24.585,7.187c-15.096,0 -26.813,-7.187 -29.833,-24.582l68.437,0c0.359,-2.662 1.149,-7.907 1.149,-13.946c0.432,-30.626 -16.245,-54.42 -47.946,-54.42l0,0zm-21.567,47.588c2.299,-15.096 11.358,-22.284 21.925,-22.284c13.586,0 18.905,9.417 18.905,22.284l-40.83,0z"/>
   </g>
  </g>
  <g id="Layer_1"/>
 </g>
</svg>