<svg width="911.963" height="978.148" xmlns="http://www.w3.org/2000/svg">

 <g>
  <title>Layer 1</title>
  <g id="svg_1" fill-rule="evenodd" fill="none">
   <path id="svg_2" fill="#412846" d="m456.963,0l-456.963,158.62l65.419,606.244l391.544,213.284l0,-978.148z"/>
   <path id="svg_3" fill="#4b314f" d="m455,0l456.963,158.62l-65.42,606.244l-391.543,213.284l0,-978.148z"/>
   <path id="svg_4" fill="#ba2bd2" d="m683.748,334.712l-0.082,-0.26c20.865,23.224 31.583,50.799 32.152,82.727c0.57,31.927 -10.148,65.607 -32.399,100.935c16.63,-12.928 35.835,-40.833 57.552,-83.393c9.381,86.252 -25.475,151.768 -104.894,196.637c25.356,-2.338 59.021,-19.032 100.775,-50.14c-44.557,107.274 -126.484,163.873 -245.78,169.798c-115.293,-0.031 -189.981,-69.315 -189.923,-69.271c-47.4,-36.892 -80.013,-83.389 -97.728,-139.284c-28.35,-30.96 -28.632,-34.28 -31.557,-46.65c-2.924,-12.372 1.848,-15.828 10.152,-27.933c5.537,-8.07 6.841,-19.68 3.997,-34.62c-7.058,-9.788 -11.122,-25.117 -12.193,-45.988c0,-10.086 6.73,-20.728 20.194,-31.925c13.462,-11.198 21.722,-19.81 24.714,-25.738c2.282,-3.233 3.164,-17.246 2.645,-42.04c-0.14,-24.353 13.382,-37.603 40.565,-39.748c40.773,-3.22 63.768,-33.884 76.578,-47.83c8.54,-9.297 21.18,-13.816 37.12,-13.903c22.444,-1.052 42.864,7.551 60.455,25.305c43.815,-2.266 88.696,9.55 134.171,35.148c64.624,38.389 99.893,79.961 105.806,124.508c-6.926,58.625 -85.68,57.093 -235.91,-4.612c-78.617,22.269 -117.268,70.525 -115.984,144.768c-0.053,68.129 32.92,117.635 98.693,148.468c-32.058,-31.473 -45.71,-57.927 -41.112,-79.835c66.68,78.967 142.632,108.482 227.726,88.551c-37.516,1.31 -67.233,-10.762 -89.598,-36.396c57.518,-1.398 111.815,-28.099 162.945,-80.373c-29.515,23.488 -60.4,32.381 -93.101,26.787c88.567,-69.631 119.908,-150.862 94.021,-243.693zm-160.748,-10.712c7.18,0 13,-5.82 13,-13s-5.82,-13 -13,-13s-13,5.82 -13,13s5.82,13 13,13z"/>
  </g>
 </g>
</svg>