<svg width="63" height="38" xmlns="http://www.w3.org/2000/svg" preserveAspectRatio="xMinYMin meet">

 <g>
  <title>Layer 1</title>
  <path id="svg_1" d="m33.63138,13.782a2.591,2.591 0 0 1 3.891,-2.243c2.348,-0.862 4.963,-1.313 7.682,-1.313c7.281,0 13.526,3.252 15.637,7.932c-0.018,1.108 -1.592,1.624 -2.22,0.944c-1.731,-3.759 -7.199,-6.465 -13.417,-6.465c-2.26,0 -4.429,0.345 -6.393,1.004a2.592,2.592 0 1 1 -5.18,0.141zm29.113,9.644a2.592,2.592 0 1 0 -4.626,1.605c-0.828,1.273 -2.115,2.426 -3.764,3.352c-2.547,1.428 -5.796,2.215 -9.151,2.215c-2.905,0 -5.694,-0.575 -8.068,-1.665c-1.604,-0.737 -2.938,-1.667 -3.935,-2.738c-0.661,-0.385 -2.189,0.843 -1.635,1.779c2.994,3.114 8.072,5.036 13.638,5.036c3.761,0 7.43,-0.896 10.331,-2.524c2.126,-1.193 3.776,-2.738 4.814,-4.476a2.594,2.594 0 0 0 2.396,-2.584z" fill="#89D96D"/>
  <path id="svg_2" d="m12.80738,28.29c-2.364,-3.065 -3.703,-7.39 -3.703,-12.06c0,-4.25 1.121,-8.261 3.156,-11.295c2.133,-3.183 5.019,-4.935 8.125,-4.935c2.831,0 5.53,1.492 7.601,4.2c1.955,2.558 3.227,6.047 3.58,9.826a24.983,24.983 0 0 0 -2.591,-1.243c-1.003,-6.007 -4.539,-10.372 -8.59,-10.372c-2.277,0 -4.452,1.373 -6.124,3.867c-1.771,2.641 -2.747,6.176 -2.747,9.953c0,4.152 1.227,8.094 3.31,10.724a2.592,2.592 0 1 1 -2.017,1.335zm18.443,-12.781c-4.232,-2.444 -8.954,-3.414 -12.862,-2.732a2.592,2.592 0 1 0 0.733,2.317c3.289,-0.486 7.282,0.4 10.923,2.503c4.447,2.567 7.592,6.552 8.207,10.247c0.767,0.32 1.604,0.594 2.51,0.807c-0.236,-4.8 -3.919,-9.915 -9.511,-13.142zm0.639,19.98c-2.334,0.297 -4.982,-0.074 -7.586,-1.048c-0.748,0.578 -1.54,1.12 -2.372,1.621c2.766,1.27 5.664,1.937 8.352,1.937c0.651,0 1.291,-0.039 1.912,-0.118c3.219,-0.409 5.77,-1.861 7.237,-4.105a22.276,22.276 0 0 1 -2.45,-0.745c-1.129,1.317 -2.898,2.179 -5.093,2.458zm-2.581,-9.472a2.592,2.592 0 1 0 -2.151,-1.105c-0.493,1.186 -1.216,2.373 -2.138,3.504c-1.426,1.748 -3.301,3.32 -5.422,4.545c-2.961,1.711 -6.15,2.629 -9.083,2.628c-0.306,0 -0.61,-0.01 -0.91,-0.03c-2.996,-0.201 -5.272,-1.398 -6.411,-3.369c-2.018,-3.496 -0.006,-8.754 4.686,-12.621a24.79,24.79 0 0 1 -0.21,-2.594l-0.133,-0.185c-3.056,2.197 -5.406,5.033 -6.619,7.983c-1.285,3.126 -1.218,6.188 0.188,8.622c1.553,2.689 4.514,4.313 8.337,4.57c0.351,0.023 0.706,0.035 1.064,0.035c3.355,0 6.97,-1.03 10.296,-2.951c3.965,-2.288 7.009,-5.556 8.506,-9.032z" fill="#999"/>
 </g>
</svg>