<svg width="254.8" height="251.2" xmlns="http://www.w3.org/2000/svg">
 <defs>
  <linearGradient y2="0.36592" y1="0.92012" x2="0.62881" x1="0.11935" id="a">
   <stop stop-color="#e01d84" offset="0"/>
   <stop stop-color="#df1d85" offset="0.401"/>
   <stop stop-color="#932c87" offset="0.77"/>
   <stop stop-color="#5d2f88" offset="1"/>
  </linearGradient>
  <radialGradient r="121.582" gradientUnits="userSpaceOnUse" gradientTransform="matrix(1,0.0023900000378489494,-0.0020000000949949026,0.8362000584602356,-13.84000015258789,-3.314999580383301)" cy="80.2" cx="190.456" id="b">
   <stop stop-color="#e01d84" offset="0"/>
   <stop stop-color="#de1e85" offset="0.139"/>
   <stop stop-color="#d62085" offset="0.285"/>
   <stop stop-color="#c92386" offset="0.434"/>
   <stop stop-color="#b72786" offset="0.586"/>
   <stop stop-color="#9d2b87" offset="0.739"/>
   <stop stop-color="#7c2e88" offset="0.891"/>
   <stop stop-color="#5d2f88" offset="1"/>
  </radialGradient>
  <linearGradient y2="0.4999" y1="0.4999" x2="0.99946" x1="-0.00146" id="c">
   <stop stop-color="#e01d84" offset="0"/>
   <stop stop-color="#da1e85" offset="0.238"/>
   <stop stop-color="#c72085" offset="0.658"/>
   <stop stop-color="#b52284" offset="0.999"/>
  </linearGradient>
 </defs>
 <g>
  <title>Layer 1</title>
  <path id="svg_1" fill="#e32286" d="m15.6,159.3c-5.2,-16.2 -6.7,-33.3 -3.7,-50.9c1.3,-7.3 3.3,-14.3 5.5,-21.4c0,0 13.8,-45.3 60.5,-66c0,0 16.1,-8.5 40.3,-9.1c0,0 -3.3,-3.2 -5.4,-4.6c-11.4,-7.6 -28.4,-10.1 -38.7,0.6c-3.1,3.2 -5.7,6.7 -8.6,9.9c-3.3,3.6 -7.3,6.6 -11.9,8.3c-4,1.5 -8,1.2 -12.1,1.9c-4.2,0.7 -8.5,2.2 -11.9,4.9c-3.7,3 -5.2,7 -5.6,11.6c-0.4,3.6 -0.3,7.3 -0.5,10.9c-0.5,10.6 -3.9,13.6 -11.5,19.5c-3.2,2.4 -5.9,5.6 -7.9,9c-6,10.6 3.6,21.6 4.1,32.3c0.1,2.2 -0.1,4.4 -0.9,6.5c-0.8,2.3 -2.4,3.8 -3.7,5.7c-1.8,2.5 -3,5.5 -2.5,8.6s2.1,6 3.6,8.7c2.9,4.8 6.5,9.1 10.3,13.2c0.2,0 0.4,0.2 0.6,0.4"/>
  <path id="svg_2" fill="url(#a)" d="m206.4,197.7c23,-10 32.8,-27.3 32.8,-27.3c21.5,-29.3 14.2,-60.2 14.2,-60.2c-13.7,29.8 -26.2,38 -26.2,38c33.7,-51.3 0.2,-82.3 0.2,-82.3c13.7,29.2 -4.5,64.8 -4.5,64.8c-15.3,32.2 -37,43.7 -37,43.7c24.2,4.5 42,-11.8 42,-11.8c-34.7,37.5 -72.3,35.7 -72.3,35.7c15.8,17.7 39.5,16.2 39.5,16.2c-31,7.3 -60.1,-3 -84,-22.9c-4.5,-3.7 -8.8,-7.7 -12.8,-12c0,0 -3.6,-3.8 -4.3,-4.8l-0.1,-0.1c-0.5,18.5 18.8,35.7 18.8,35.7c-24.2,-10 -35.3,-31.7 -35.3,-31.7s-16.3,-27.8 -4.5,-59.5s47.5,-38.5 47.5,-38.5c29.5,14.3 54.5,18.8 54.5,18.8c52.7,8.8 49.7,-17 49.7,-17c0.5,-22.2 -33,-45.8 -33,-45.8c-59.7,-44.3 -113.7,-15.7 -113.7,-15.7c-46.7,20.7 -60.5,66 -60.5,66c-2.2,7.1 -4.2,14.1 -5.5,21.4c-5.1,29.7 2.6,57.8 19.3,82.8c26,38.8 68.2,52.2 68.2,52.2c62.5,21.2 105.2,-10 105.2,-10c39.3,-27 47.2,-58.2 47.2,-58.2c-31.7,24.8 -45.4,22.5 -45.4,22.5zm-48.8,-145.9c3,0 5.4,2.4 5.4,5.4s-2.4,5.4 -5.4,5.4s-5.4,-2.4 -5.4,-5.4s2.4,-5.4 5.4,-5.4z"/>
  <path id="svg_3" fill="url(#b)" d="m224.5,82.4c0.5,-22.2 -33,-45.8 -33,-45.8c-59.7,-44.2 -113.7,-15.6 -113.7,-15.6c-46.7,20.7 -60.5,66 -60.5,66c-2.7,7.7 -5.1,19.5 -5.1,19.5c-2.9,14.8 -1.6,28.5 -1.6,28.5c1.2,13.1 4.1,21.9 4.1,21.9c3,9.4 4.4,12.3 4.4,12.3c-0.1,-0.3 -0.6,-2.5 -0.6,-2.5s-4.2,-20.2 -0.3,-39.6c0,0 3.4,-20.2 17.2,-35.8c0,0 22.4,-31.9 64.1,-19.4c0,0 9,3.2 12.1,4.8c3.1,1.5 8.5,3.8 8.5,3.8c29.5,14.3 54.5,18.8 54.5,18.8c52.9,8.9 49.9,-16.9 49.9,-16.9zm-66.9,-19.7c-3,0 -5.4,-2.4 -5.4,-5.4s2.4,-5.4 5.4,-5.4s5.4,2.4 5.4,5.4s-2.4,5.4 -5.4,5.4z"/>
  <path id="svg_4" fill="url(#c)" d="m123.4,42.2l-34.1,-10.6c-0.2,0 -1.2,-0.5 -3,0c0,0 -20.1,5.1 -16.6,16.1c0,0 2.1,6.9 7.8,13.6l37.5,-1.8l8.4,-17.3z"/>
 </g>
</svg>