<svg width="1064" height="1203" xmlns="http://www.w3.org/2000/svg">

 <g>
  <title>Layer 1</title>
  <path id="svg_1" d="m532,0.89999l530.3,300l0,600l-530.3,300l-530.3,-300l0,-600l530.3,-300z" fill="#fff"/>
  <path id="svg_2" d="m967.6,880.19999l-418.1,236.5l0,-184.2l260.5,-143.3l157.6,91zm28.6,-25.9l0,-494.6l-153,88.3l0,317.9l153,88.4zm-901.5,25.9l418.1,236.5l0,-184.2l-260.5,-143.3l-157.6,91zm-28.6,-25.9l0,-494.6l153,88.3l0,317.9l-153,88.4zm17.9,-526.6l428.8,-242.6l0,178.1l-274.7,151.1l-2.1,1.2l-152,-87.8zm894.3,0l-428.8,-242.6l0,178.1l274.7,151.1l2.1,1.2l152,-87.8z" fill="#8ed6fb"/>
  <path id="svg_3" d="m512.8,890.59999l-257,-141.3l0,-280l257,148.4l0,272.9m36.7,0l257,-141.3l0,-280l-257,148.4l0,272.9m-276.3,-453.7l258,-141.9l258,141.9l-258,149l-258,-149" fill="#1c78c0"/>
 </g>
</svg>