<svg width="496" height="408" xmlns="http://www.w3.org/2000/svg">

 <g>
  <title>Layer 1</title>
  <g id="svg_1" fill="#2bcacd">
   <path id="svg_2" d="m464,0l-432,0a32.042,32.042 0 0 0 -32,32l0,272a32.042,32.042 0 0 0 32,32l164.9,0l-10.67,32l-26.23,0a8,8 0 0 0 -8,8l0,16l-72,0a8,8 0 0 0 0,16l352,0a8,8 0 0 0 0,-16l-88,0l0,-16a8,8 0 0 0 -8,-8l-26.23,0l-10.67,-32l164.9,0a32.042,32.042 0 0 0 32,-32l0,-272a32.042,32.042 0 0 0 -32,-32zm-136,384l0,8l-160,0l0,-8l160,0zm-124.9,-16l10.67,-32l68.46,0l10.67,32l-89.8,0zm276.9,-64a16.021,16.021 0 0 1 -16,16l-432,0a16.021,16.021 0 0 1 -16,-16l0,-16l464,0l0,16zm-344.34,-104l-3,72l-9.32,0l-3,-72l15.32,0zm-14.22,-16l5.34,-32l2.44,0l5.34,32l-13.12,0zm6.56,-48c-8.67,0 -16,-10.99 -16,-24c0,-8.21 8.38,-20.14 15.98,-28.55c6.85,7.6 16.02,19.75 16.02,28.55c0,13.01 -7.33,24 -16,24zm87.06,-16l0.94,1.89l0,6.11l-32,0l0,-6.11l0.94,-1.89l30.12,0zm-22.12,-16l7.06,-14.11l7.06,14.11l-14.12,0zm23.06,40l0,127a8.258,8.258 0 0 0 0.07,1l-32.14,0a8.258,8.258 0 0 0 0.07,-1l0,-127l32,0zm72,-32l24,0l0,16l-8,0a8,8 0 0 0 0,16l8,0l0,16l-24,0a8,8 0 0 0 0,16l24,0l0,16l-8,0a8,8 0 0 0 0,16l8,0l0,16l-24,0a8,8 0 0 0 0,16l24,0l0,32l-56,0l0,-192l56,0l0,16l-24,0a8,8 0 0 0 0,16zm96,96l0,63a8.258,8.258 0 0 0 0.07,1l-32.14,0a8.258,8.258 0 0 0 0.07,-1l0,-63l32,0zm-32,-16l0,-6.11l16,-32l16,32l0,6.11l-32,0zm128,80l-80.07,0a8.258,8.258 0 0 0 0.07,-1l0,-87a8.081,8.081 0 0 0 -0.84,-3.58l-24,-48a8.009,8.009 0 0 0 -14.32,0l-24,48a8.081,8.081 0 0 0 -0.84,3.58l0,87a8.258,8.258 0 0 0 0.07,1l-8.07,0l0,-200a8,8 0 0 0 -8,-8l-72,0a8,8 0 0 0 -8,8l0,200l-8.07,0a8.258,8.258 0 0 0 0.07,-1l0,-151a8.081,8.081 0 0 0 -0.84,-3.58l-24,-48a8.009,8.009 0 0 0 -14.32,0l-24,48a8.081,8.081 0 0 0 -0.84,3.58l0,151a8.258,8.258 0 0 0 0.07,1l-19.4,0l3.32,-79.67c0.01,-0.18 0,-0.36 0,-0.55l0,-0.24a8.013,8.013 0 0 0 -0.1,-0.84l0,-0.02l-7.4,-44.41c9.29,-7.01 15.51,-19.75 15.51,-34.27c0,-20.56 -23.83,-43.33 -26.55,-45.86a8.017,8.017 0 0 0 -10.9,0c-2.72,2.53 -26.55,25.3 -26.55,45.86c0,14.52 6.22,27.26 15.51,34.27l-7.4,44.41l0,0.02a8.013,8.013 0 0 0 -0.1,0.84l0,0.24c0,0.19 -0.01,0.37 0,0.55l3.32,79.67l-91.33,0l0,-240a16.021,16.021 0 0 1 16,-16l432,0a16.021,16.021 0 0 1 16,16l0,240z"/>
   <path id="svg_3" d="m88,296l-48,0a8,8 0 0 0 0,16l48,0a8,8 0 0 0 0,-16z"/>
   <path id="svg_4" d="m120,296l-8,0a8,8 0 0 0 0,16l8,0a8,8 0 0 0 0,-16z"/>
   <path id="svg_5" d="m200,152a8,8 0 0 0 -8,8l0,88a8,8 0 0 0 16,0l0,-88a8,8 0 0 0 -8,-8z"/>
   <path id="svg_6" d="m368,216a8,8 0 0 0 -8,8l0,24a8,8 0 0 0 16,0l0,-24a8,8 0 0 0 -8,-8z"/>
   <path id="svg_7" d="m40,48l64,0a8,8 0 0 0 0,-16l-64,0a8,8 0 0 0 0,16z"/>
   <path id="svg_8" d="m40,72l16,0a8,8 0 0 0 0,-16l-16,0a8,8 0 0 0 0,16z"/>
   <path id="svg_9" d="m424,256l32,0a8,8 0 0 0 0,-16l-32,0a8,8 0 0 0 0,16z"/>
   <path id="svg_10" d="m448,232l8,0a8,8 0 0 0 0,-16l-8,0a8,8 0 0 0 0,16z"/>
  </g>
 </g>
</svg>
