<svg width="416" height="408" xmlns="http://www.w3.org/2000/svg" xml:space="preserve" version="1.1">

 <g fill="#2bcacd">
  <title>Layer 1</title>
  <g stroke="null" id="svg_1">
   <g stroke="null" id="svg_2">
    <g stroke="null" id="svg_3">
     <path stroke="null" id="svg_4" d="m362.32258,355.35482l0,19.74193l-308.64516,0l0,-19.74193l-20.12903,0l0,-302.70966l20.12903,0l0,-52.64516l-53.67742,0l0,52.64516l20.12903,0l0,302.70966l-20.12903,0l0,52.64516l53.67742,0l0,-19.74193l308.64516,0l0,19.74193l53.67742,0l0,-52.64516l-53.67742,0zm-348.90323,-315.87095l0,-26.32258l26.83871,0l0,26.32258l-26.83871,0zm26.83871,355.35482l-26.83871,0l0,-26.32258l26.83871,0l0,26.32258zm362.32258,0l-26.83871,0l0,-26.32258l26.83871,0l0,26.32258z"/>
     <path stroke="null" id="svg_5" d="m402.58065,13.16129l-335.48387,0l0,329.03224l335.48387,0l0,-329.03224zm-295.22581,315.87095l-26.83871,0l0,-26.32258l26.83871,0l0,26.32258zm0,-39.48387l-26.83871,0l0,-26.32258l26.83871,0l0,26.32258zm0,-39.48387l-26.83871,0l0,-26.32258l26.83871,0l0,26.32258zm0,-39.48387l-26.83871,0l0,-26.32258l26.83871,0l0,26.32258zm0,-39.48387l-26.83871,0l0,-26.32258l26.83871,0l0,26.32258zm0,-39.48387l-26.83871,0l0,-26.32258l26.83871,0l0,26.32258zm0,-39.48387l-26.83871,0l0,-26.32258l26.83871,0l0,26.32258zm0,-39.48387l-26.83871,0l0,-26.32258l26.83871,0l0,26.32258zm40.25806,276.38708l-26.83871,0l0,-26.32258l26.83871,0l0,26.32258zm0,-39.48387l-26.83871,0l0,-26.32258l26.83871,0l0,26.32258zm0,-39.48387l-26.83871,0l0,-26.32258l26.83871,0l0,26.32258zm0,-39.48387l-26.83871,0l0,-26.32258l26.83871,0l0,26.32258zm0,-39.48387l-26.83871,0l0,-26.32258l26.83871,0l0,26.32258zm0,-39.48387l-26.83871,0l0,-26.32258l26.83871,0l0,26.32258zm0,-39.48387l-26.83871,0l0,-26.32258l26.83871,0l0,26.32258zm0,-39.48387l-26.83871,0l0,-26.32258l26.83871,0l0,26.32258zm40.25806,276.38708l-26.83871,0l0,-26.32258l26.83871,0l0,26.32258zm0,-39.48387l-26.83871,0l0,-26.32258l26.83871,0l0,26.32258zm0,-39.48387l-26.83871,0l0,-26.32258l26.83871,0l0,26.32258zm0,-39.48387l-26.83871,0l0,-26.32258l26.83871,0l0,26.32258zm0,-39.48387l-26.83871,0l0,-26.32258l26.83871,0l0,26.32258zm0,-39.48387l-26.83871,0l0,-26.32258l26.83871,0l0,26.32258zm0,-39.48387l-26.83871,0l0,-26.32258l26.83871,0l0,26.32258zm0,-39.48387l-26.83871,0l0,-26.32258l26.83871,0l0,26.32258zm40.25806,276.38708l-26.83871,0l0,-26.32258l26.83871,0l0,26.32258zm0,-39.48387l-26.83871,0l0,-26.32258l26.83871,0l0,26.32258zm0,-39.48387l-26.83871,0l0,-26.32258l26.83871,0l0,26.32258zm0,-39.48387l-26.83871,0l0,-26.32258l26.83871,0l0,26.32258zm0,-39.48387l-26.83871,0l0,-26.32258l26.83871,0l0,26.32258zm0,-39.48387l-26.83871,0l0,-26.32258l26.83871,0l0,26.32258zm0,-39.48387l-26.83871,0l0,-26.32258l26.83871,0l0,26.32258zm0,-39.48387l-26.83871,0l0,-26.32258l26.83871,0l0,26.32258zm40.25806,276.38708l-26.83871,0l0,-26.32258l26.83871,0l0,26.32258zm0,-39.48387l-26.83871,0l0,-26.32258l26.83871,0l0,26.32258zm0,-39.48387l-26.83871,0l0,-26.32258l26.83871,0l0,26.32258zm0,-39.48387l-26.83871,0l0,-26.32258l26.83871,0l0,26.32258zm0,-39.48387l-26.83871,0l0,-26.32258l26.83871,0l0,26.32258zm0,-39.48387l-26.83871,0l0,-26.32258l26.83871,0l0,26.32258zm0,-39.48387l-26.83871,0l0,-26.32258l26.83871,0l0,26.32258zm0,-39.48387l-26.83871,0l0,-26.32258l26.83871,0l0,26.32258zm40.25806,276.38708l-26.83871,0l0,-26.32258l26.83871,0l0,26.32258zm0,-39.48387l-26.83871,0l0,-26.32258l26.83871,0l0,26.32258zm0,-39.48387l-26.83871,0l0,-26.32258l26.83871,0l0,26.32258zm0,-39.48387l-26.83871,0l0,-26.32258l26.83871,0l0,26.32258zm0,-39.48387l-26.83871,0l0,-26.32258l26.83871,0l0,26.32258zm0,-39.48387l-26.83871,0l0,-26.32258l26.83871,0l0,26.32258zm0,-39.48387l-26.83871,0l0,-26.32258l26.83871,0l0,26.32258zm0,-39.48387l-26.83871,0l0,-26.32258l26.83871,0l0,26.32258zm40.25806,276.38708l-26.83871,0l0,-26.32258l26.83871,0l0,26.32258zm0,-39.48387l-26.83871,0l0,-26.32258l26.83871,0l0,26.32258zm0,-39.48387l-26.83871,0l0,-26.32258l26.83871,0l0,26.32258zm0,-39.48387l-26.83871,0l0,-26.32258l26.83871,0l0,26.32258zm0,-39.48387l-26.83871,0l0,-26.32258l26.83871,0l0,26.32258zm0,-39.48387l-26.83871,0l0,-26.32258l26.83871,0l0,26.32258zm0,-39.48387l-26.83871,0l0,-26.32258l26.83871,0l0,26.32258zm0,-39.48387l-26.83871,0l0,-26.32258l26.83871,0l0,26.32258zm40.25806,276.38708l-26.83871,0l0,-26.32258l26.83871,0l0,26.32258zm0,-39.48387l-26.83871,0l0,-26.32258l26.83871,0l0,26.32258zm0,-39.48387l-26.83871,0l0,-26.32258l26.83871,0l0,26.32258zm0,-39.48387l-26.83871,0l0,-26.32258l26.83871,0l0,26.32258zm0,-39.48387l-26.83871,0l0,-26.32258l26.83871,0l0,26.32258zm0,-39.48387l-26.83871,0l0,-26.32258l26.83871,0l0,26.32258zm0,-39.48387l-26.83871,0l0,-26.32258l26.83871,0l0,26.32258zm0,-39.48387l-26.83871,0l0,-26.32258l26.83871,0l0,26.32258z"/>
    </g>
   </g>
  </g>
  <g id="svg_6"/>
  <g id="svg_7"/>
  <g id="svg_8"/>
  <g id="svg_9"/>
  <g id="svg_10"/>
  <g id="svg_11"/>
  <g id="svg_12"/>
  <g id="svg_13"/>
  <g id="svg_14"/>
  <g id="svg_15"/>
  <g id="svg_16"/>
  <g id="svg_17"/>
  <g id="svg_18"/>
  <g id="svg_19"/>
  <g id="svg_20"/>
 </g>
</svg>
