<?xml version="1.0" encoding="iso-8859-1"?>
<!-- Generator: Adobe Illustrator 19.0.0, SVG Export Plug-In . SVG Version: 6.00 Build 0)  -->
<svg version="1.1" id="Layer_1" xmlns="http://www.w3.org/2000/svg" xmlns:xlink="http://www.w3.org/1999/xlink" x="0px" y="0px"
	 viewBox="0 0 496 496" style="enable-background:new 0 0 496 496;" xml:space="preserve">
<g>
	<g>
		<g>
			<path d="M432,432v24H64v-24H40V64h24V0H0v64h24v368H0v64h64v-24h368v24h64v-64H432z M16,48V16h32v32H16z M48,480H16v-32h32V480z
				 M480,480h-32v-32h32V480z"/>
			<path d="M480,16H80v400h400V16z M128,400H96v-32h32V400z M128,352H96v-32h32V352z M128,304H96v-32h32V304z M128,256H96v-32h32
				V256z M128,208H96v-32h32V208z M128,160H96v-32h32V160z M128,112H96V80h32V112z M128,64H96V32h32V64z M176,400h-32v-32h32V400z
				 M176,352h-32v-32h32V352z M176,304h-32v-32h32V304z M176,256h-32v-32h32V256z M176,208h-32v-32h32V208z M176,160h-32v-32h32V160
				z M176,112h-32V80h32V112z M176,64h-32V32h32V64z M224,400h-32v-32h32V400z M224,352h-32v-32h32V352z M224,304h-32v-32h32V304z
				 M224,256h-32v-32h32V256z M224,208h-32v-32h32V208z M224,160h-32v-32h32V160z M224,112h-32V80h32V112z M224,64h-32V32h32V64z
				 M272,400h-32v-32h32V400z M272,352h-32v-32h32V352z M272,304h-32v-32h32V304z M272,256h-32v-32h32V256z M272,208h-32v-32h32V208
				z M272,160h-32v-32h32V160z M272,112h-32V80h32V112z M272,64h-32V32h32V64z M320,400h-32v-32h32V400z M320,352h-32v-32h32V352z
				 M320,304h-32v-32h32V304z M320,256h-32v-32h32V256z M320,208h-32v-32h32V208z M320,160h-32v-32h32V160z M320,112h-32V80h32V112z
				 M320,64h-32V32h32V64z M368,400h-32v-32h32V400z M368,352h-32v-32h32V352z M368,304h-32v-32h32V304z M368,256h-32v-32h32V256z
				 M368,208h-32v-32h32V208z M368,160h-32v-32h32V160z M368,112h-32V80h32V112z M368,64h-32V32h32V64z M416,400h-32v-32h32V400z
				 M416,352h-32v-32h32V352z M416,304h-32v-32h32V304z M416,256h-32v-32h32V256z M416,208h-32v-32h32V208z M416,160h-32v-32h32V160
				z M416,112h-32V80h32V112z M416,64h-32V32h32V64z M464,400h-32v-32h32V400z M464,352h-32v-32h32V352z M464,304h-32v-32h32V304z
				 M464,256h-32v-32h32V256z M464,208h-32v-32h32V208z M464,160h-32v-32h32V160z M464,112h-32V80h32V112z M464,64h-32V32h32V64z"/>
		</g>
	</g>
</g>
<g>
</g>
<g>
</g>
<g>
</g>
<g>
</g>
<g>
</g>
<g>
</g>
<g>
</g>
<g>
</g>
<g>
</g>
<g>
</g>
<g>
</g>
<g>
</g>
<g>
</g>
<g>
</g>
<g>
</g>
</svg>
