<svg width="496" height="368" xmlns="http://www.w3.org/2000/svg">

 <g>
  <title>Layer 1</title>
  <g id="svg_1" fill="#2bcacd">
   <path id="svg_2" d="m56,328l-24,0a8,8 0 0 0 0,16l24,0a8,8 0 0 0 0,-16z"/>
   <path id="svg_3" d="m88,328l-8,0a8,8 0 0 0 0,16l8,0a8,8 0 0 0 0,-16z"/>
   <path id="svg_4" d="m464,96l-16,0l0,-64a32.042,32.042 0 0 0 -32,-32l-336,0a32.036,32.036 0 0 0 -32,32l0,144l-16,0a32.036,32.036 0 0 0 -32,32l0,128a32.036,32.036 0 0 0 32,32l80,0a32.042,32.042 0 0 0 32,-32l0,-24l69.75,0l-4,16l-25.75,0a8,8 0 0 0 -8,8l0,24a8,8 0 0 0 8,8l280,0a32.042,32.042 0 0 0 32,-32l0,-208a32.042,32.042 0 0 0 -32,-32zm-336,240a16.021,16.021 0 0 1 -16,16l-80,0a16.021,16.021 0 0 1 -16,-16l0,-128a16.021,16.021 0 0 1 16,-16l10.23,0l6.18,18.53a8,8 0 0 0 7.59,5.47l32,0a8,8 0 0 0 7.59,-5.47l6.18,-18.53l10.23,0a16.021,16.021 0 0 1 16,16l0,128zm-68.9,-144l25.8,0l-2.67,8l-20.46,0l-2.67,-8zm84.9,104l0,-24l144,0l0,24l-144,0zm144,16l0,16l-1.75,0l-4,-16l5.75,0zm-18.25,16l-43.5,0l4,-16l35.5,0l4,16zm-77.75,24l0,-8l97.01,0a31.971,31.971 0 0 0 3.3,8l-100.31,0zm96,-224l0,128l-144,0l0,-48a32.042,32.042 0 0 0 -32,-32l-48,0l0,-144a16.021,16.021 0 0 1 16,-16l336,0a16.021,16.021 0 0 1 16,16l0,64l-112,0a32.042,32.042 0 0 0 -32,32zm192,208a16.021,16.021 0 0 1 -16,16l-144,0a16.021,16.021 0 0 1 -16,-16l0,-208a16.021,16.021 0 0 1 16,-16l144,0a16.021,16.021 0 0 1 16,16l0,208z"/>
   <path id="svg_5" d="m464,120l-144,0a8,8 0 0 0 -8,8l0,184a8,8 0 0 0 8,8l144,0a8,8 0 0 0 8,-8l0,-184a8,8 0 0 0 -8,-8zm-8,184l-128,0l0,-168l128,0l0,168z"/>
   <circle id="svg_6" r="8" cy="336" cx="384"/>
  </g>
 </g>
</svg>
